<svg width="108" height="46" viewBox="0 0 108 46" fill="none" xmlns="http://www.w3.org/2000/svg">
<g clip-path="url(#clip0_1_277)">
<path d="M19.9026 6.62305C18.6428 8.11377 16.6272 9.28955 14.6116 9.12158C14.3596 7.10596 15.3464 4.96435 16.5012 3.6416C17.761 2.10889 19.9656 1.01709 21.7503 0.933105C21.9602 3.03271 21.1414 5.09033 19.9026 6.62305ZM21.7293 9.52051C18.8108 9.35254 16.3123 11.1792 14.9265 11.1792C13.5198 11.1792 11.3992 9.60449 9.08961 9.64648C6.08717 9.68848 3.29469 11.3892 1.76198 14.0977C-1.38744 19.5146 0.943129 27.5352 3.98756 31.9443C5.47829 34.1279 7.26295 36.5215 9.61452 36.4375C11.8401 36.3535 12.7219 34.9888 15.4094 34.9888C18.1179 34.9888 18.8948 36.4375 21.2464 36.3955C23.6819 36.3535 25.2146 34.2119 26.7053 32.0283C28.406 29.5508 29.0989 27.1362 29.1409 27.0103C29.0989 26.9683 24.4378 25.1836 24.3958 19.8086C24.3538 15.3154 28.0701 13.1738 28.2381 13.0479C26.1384 9.94043 22.8631 9.60449 21.7293 9.52051ZM38.5891 3.43164V36.1646H43.6702V24.9736H50.7039C57.1287 24.9736 61.6428 20.5645 61.6428 14.1816C61.6428 7.79883 57.2127 3.43164 50.8718 3.43164H38.5891ZM43.6702 7.71484H49.5281C53.9373 7.71484 56.4568 10.0664 56.4568 14.2026C56.4568 18.3389 53.9373 20.7114 49.5071 20.7114H43.6702V7.71484ZM70.9231 36.4165C74.1145 36.4165 77.075 34.7998 78.4187 32.2383H78.5237V36.1646H83.2268V19.8716C83.2268 15.1475 79.4475 12.103 73.6316 12.103C68.2356 12.103 64.2464 15.1895 64.0994 19.4307H68.6765C69.0545 17.415 70.9231 16.0923 73.4846 16.0923C76.592 16.0923 78.3347 17.541 78.3347 20.2075V22.0132L71.9939 22.3911C66.094 22.748 62.9026 25.1626 62.9026 29.3618C62.9026 33.603 66.199 36.4165 70.9231 36.4165ZM72.2879 32.5322C69.5794 32.5322 67.8577 31.2305 67.8577 29.2358C67.8577 27.1782 69.5164 25.9814 72.6868 25.7925L78.3347 25.4355V27.2832C78.3347 30.3486 75.7312 32.5322 72.2879 32.5322ZM89.5047 45.0669C94.4597 45.0669 96.7903 43.1772 98.8269 37.4453L107.75 12.418H102.585L96.6013 31.7554H96.4964L90.5125 12.418H85.2005L93.8089 36.2485L93.3469 37.6973C92.5701 40.1538 91.3103 41.0986 89.0637 41.0986C88.6648 41.0986 87.888 41.0566 87.573 41.0146V44.9409C87.867 45.0249 89.1267 45.0669 89.5047 45.0669Z" fill="black"/>
</g>
<defs>
<clipPath id="clip0_1_277">
<rect width="107.5" height="44.1338" fill="white" transform="translate(0.25 0.933105)"/>
</clipPath>
</defs>
</svg>
