<svg width="108" height="36" viewBox="0 0 108 36" fill="none" xmlns="http://www.w3.org/2000/svg">
<g clip-path="url(#clip0_1_193)">
<path d="M45.685 20.7604H0V35.9797H45.685V20.7604Z" fill="#84B740"/>
<path d="M45.685 -0.0067749H0V15.2261H45.685V-0.0067749Z" fill="#259BD6"/>
<path d="M91.37 32.887L91.1665 32.9277C90.4612 33.0633 90.2035 33.1176 89.688 33.1176C88.4944 33.1176 87.0836 32.5072 87.0836 29.6315C87.0836 28.153 87.3278 26.1861 89.5524 26.1861H89.5659C89.9457 26.2133 90.3798 26.254 91.1937 26.4981L91.37 26.5524V32.887ZM91.7362 18.5494L91.37 18.6172V23.9344L91.0445 23.8395L90.9495 23.8124C90.5833 23.7039 89.7423 23.4597 88.9284 23.4597C84.4793 23.4597 83.5433 26.8237 83.5433 29.6451C83.5433 33.5109 85.7136 35.7355 89.4981 35.7355C91.0987 35.7355 92.2788 35.5727 93.4725 35.1794C94.5712 34.8267 94.9646 34.3248 94.9646 33.2532V17.9932C93.9066 18.1831 92.8078 18.373 91.7362 18.5494Z" fill="#27292D"/>
<path d="M104.595 32.982L104.405 33.0362L103.727 33.2126C103.09 33.3753 102.52 33.4703 102.086 33.4703C101.041 33.4703 100.417 32.9548 100.417 32.0731C100.417 31.5034 100.675 30.5404 102.384 30.5404H104.595V32.982ZM103.035 23.3919C101.665 23.3919 100.255 23.6361 98.5049 24.1786L97.3655 24.5178L97.7453 27.095L98.8575 26.7288C100.024 26.349 101.475 26.1048 102.561 26.1048C103.049 26.1048 104.541 26.1048 104.541 27.719V28.4243H102.466C98.6812 28.4243 96.9314 29.6315 96.9314 32.2224C96.9314 34.4334 98.5456 35.7627 101.258 35.7627C102.099 35.7627 103.266 35.5999 104.27 35.3557L104.324 35.3422L104.378 35.3557L104.717 35.41C105.775 35.5999 106.874 35.7898 107.946 35.9933V27.5291C107.946 24.789 106.291 23.3919 103.035 23.3919Z" fill="#27292D"/>
<path d="M78.2396 32.982L78.0497 33.0362L77.3715 33.2126C76.7339 33.3753 76.1778 33.4703 75.7302 33.4703C74.6857 33.4703 74.0617 32.9548 74.0617 32.0731C74.0617 31.5034 74.3195 30.5404 76.015 30.5404H78.226L78.2396 32.982ZM76.6932 23.3919C75.3097 23.3919 73.9125 23.6361 72.1627 24.1786L71.0233 24.5178L71.4031 27.095L72.5154 26.7288C73.6819 26.349 75.1333 26.1048 76.2185 26.1048C76.7068 26.1048 78.1989 26.1048 78.1989 27.719V28.4243H76.1235C72.3391 28.4243 70.5757 29.6315 70.5757 32.2224C70.5757 34.4334 72.1899 35.7627 74.9163 35.7627C75.7573 35.7627 76.9238 35.5999 77.9276 35.3557L77.9819 35.3422L78.0361 35.3557L78.3617 35.41C79.4333 35.5999 80.5184 35.7898 81.59 36.0068V27.5426C81.6036 24.7755 79.9487 23.3919 76.6932 23.3919Z" fill="#27292D"/>
<path d="M63.9562 23.419C62.2335 23.419 60.8093 23.9887 60.2803 24.2329L60.1446 24.3007L60.0225 24.2058C59.2901 23.6767 58.2185 23.4055 56.7264 23.4055C55.4106 23.4055 54.1763 23.5954 52.8334 23.9887C51.6804 24.3414 51.2328 24.8975 51.2328 25.942V35.6134H54.8409V26.6745L55.0173 26.6202C55.7497 26.3761 56.1838 26.3354 56.6043 26.3354C57.6488 26.3354 58.1778 26.8915 58.1778 27.9767V35.627H61.7317V27.8275C61.7317 27.3663 61.6367 27.095 61.6231 27.0407L61.5011 26.8101L61.7452 26.7016C62.2878 26.4575 62.8846 26.3354 63.5086 26.3354C64.2275 26.3354 65.0821 26.6202 65.0821 27.9767V35.627H68.6224V27.624C68.6224 24.789 67.1032 23.419 63.9562 23.419Z" fill="#27292D"/>
<path d="M101.937 9.92239C101.408 9.92239 100.526 9.86813 99.8341 9.73249L99.6306 9.69179V4.46949C99.6306 4.03543 99.5492 3.76414 99.5357 3.72344L99.4271 3.50641L99.6577 3.41146C99.712 3.38433 99.7663 3.37077 99.8341 3.34364L99.8748 3.31651C99.9562 3.28938 100.038 3.26225 100.119 3.23512C100.16 3.22156 100.187 3.208 100.214 3.208C101.014 2.99096 101.747 3.01809 102.072 2.99096H102.086C104.297 2.99096 104.555 4.95781 104.555 6.43633C104.541 9.31199 103.117 9.92239 101.937 9.92239ZM101.923 -0.0067749C101.896 -0.0067749 101.855 -0.0067749 101.828 -0.0067749C99.7527 -0.0067749 97.6231 0.562931 96.8635 1.67521C96.4565 2.21779 96.2259 2.89601 96.2124 3.69631V9.08139C96.2124 9.54259 96.1174 9.71892 96.1039 9.75962L95.9818 9.99021H89.4302V6.24643H89.4166C89.3352 2.29918 87.0021 0.128869 83.6246 0.128869H83.2312H80.3284C80.1928 1.09194 80.0843 1.77017 79.9486 2.73324H83.2312C84.9539 2.73324 85.8627 4.1982 85.8627 6.44989V10.2208L85.6321 10.0987C85.5914 10.0852 85.3066 9.99021 84.8589 9.99021H79.189C79.0805 10.7091 78.9449 11.6451 78.7957 12.581H96.2259C96.8228 12.4589 97.5146 12.3504 98.1114 12.2555C98.9931 12.6895 100.634 12.9201 101.76 12.9201C105.545 12.9201 108 10.3836 108 6.47702C107.986 2.61116 105.613 0.0746117 101.923 -0.0067749Z" fill="#27292D"/>
<path d="M71.3624 14.1681H71.5252C75.3097 14.1681 77.073 12.9202 77.073 9.84102C77.073 7.63002 75.4589 5.86665 72.746 5.86665H69.2599C68.2155 5.86665 67.5915 5.26981 67.5915 4.26604C67.5915 3.58782 67.8492 2.74683 69.5583 2.74683H77.1815C77.3443 1.75662 77.4257 1.13266 77.5749 0.142456H69.6533C65.9638 0.142456 64.1054 1.6888 64.1054 4.26604C64.1054 6.81616 65.7196 8.14547 68.4325 8.14547H71.9185C72.963 8.14547 73.587 8.9729 73.587 9.84102C73.587 10.4107 73.3292 11.5908 71.6337 11.5908H71.0504L59.8869 11.5637H57.8522C56.1295 11.5637 54.9223 10.5871 54.9223 8.32181V6.7619C54.9223 4.40169 55.8583 2.93673 57.8522 2.93673H61.1619C61.3112 1.93296 61.4061 1.29543 61.5418 0.345923H57.4182H57.0248C53.6473 0.345923 51.3142 2.61118 51.2328 6.55843V6.70764V8.32181C51.3142 12.2691 53.6473 14.1545 57.0248 14.1545H57.4182H60.321L66.3707 14.1681H69.9788H71.3624Z" fill="#27292D"/>
</g>
<defs>
<clipPath id="clip0_1_193">
<rect width="108" height="36.0136" fill="white" transform="translate(0 -0.0067749)"/>
</clipPath>
</defs>
</svg>
