<svg width="86" height="66" viewBox="0 0 86 66" fill="none" xmlns="http://www.w3.org/2000/svg">
<g clip-path="url(#clip0_1_288)">
<path d="M16.188 65.5198V61.1844C16.188 59.526 15.1778 58.4401 13.4436 58.4401C12.5765 58.4401 11.6337 58.7263 10.9855 59.6691C10.4804 58.8778 9.7564 58.4401 8.67044 58.4401C7.94647 58.4401 7.2225 58.6589 6.65006 59.4503V58.5832H5.13477V65.5198H6.65006V61.6895C6.65006 60.4604 7.29826 59.8796 8.30846 59.8796C9.31865 59.8796 9.82375 60.5278 9.82375 61.6895V65.5198H11.339V61.6895C11.339 60.4604 12.063 59.8796 12.9974 59.8796C14.0076 59.8796 14.5127 60.5278 14.5127 61.6895V65.5198H16.188ZM38.6648 58.5832H36.2066V56.487H34.6913V58.5832H33.3192V59.9553H34.6913V63.1375C34.6913 64.7285 35.3396 65.6629 37.0737 65.6629C37.7219 65.6629 38.4459 65.4441 38.951 65.1578L38.5132 63.853C38.0755 64.1392 37.5704 64.215 37.2084 64.215C36.4844 64.215 36.1982 63.7772 36.1982 63.0617V59.9553H38.6564V58.5832H38.6648ZM51.5279 58.4316C50.6608 58.4316 50.08 58.8694 49.718 59.4418V58.5747H48.2027V65.5114H49.718V61.6053C49.718 60.452 50.2231 59.7954 51.1659 59.7954C51.4521 59.7954 51.8141 59.8712 52.1088 59.9385L52.5465 58.4906C52.2435 58.4316 51.8141 58.4316 51.5279 58.4316ZM32.0901 59.1556C31.3661 58.6505 30.3559 58.4316 29.27 58.4316C27.5358 58.4316 26.3825 59.2987 26.3825 60.6709C26.3825 61.8242 27.2496 62.4808 28.7649 62.6913L29.4889 62.767C30.2802 62.9102 30.7179 63.129 30.7179 63.491C30.7179 63.9961 30.1371 64.3581 29.1269 64.3581C28.1167 64.3581 27.3169 63.9961 26.8118 63.6341L26.0879 64.7874C26.8792 65.3683 27.9651 65.6545 29.0511 65.6545C31.0715 65.6545 32.2332 64.7117 32.2332 63.4153C32.2332 62.1862 31.2904 61.538 29.8508 61.3191L29.1269 61.2433C28.4787 61.1676 27.9736 61.0245 27.9736 60.5951C27.9736 60.09 28.4787 59.8038 29.2784 59.8038C30.1455 59.8038 31.0126 60.1658 31.4503 60.3847L32.0901 59.1556ZM72.4052 58.4316C71.5382 58.4316 70.9573 58.8694 70.5953 59.4418V58.5747H69.08V65.5114H70.5953V61.6053C70.5953 60.452 71.1004 59.7954 72.0433 59.7954C72.3295 59.7954 72.6915 59.8712 72.9861 59.9385L73.4239 58.5074C73.1292 58.4316 72.6999 58.4316 72.4052 58.4316ZM53.0432 62.0515C53.0432 64.1476 54.4911 65.6629 56.7304 65.6629C57.7406 65.6629 58.4646 65.4441 59.1885 64.8716L58.4646 63.6426C57.8837 64.0803 57.3113 64.2908 56.6546 64.2908C55.4256 64.2908 54.5585 63.4237 54.5585 62.0515C54.5585 60.7467 55.4256 59.8796 56.6546 59.8122C57.3028 59.8122 57.8837 60.0311 58.4646 60.4604L59.1885 59.2314C58.4646 58.6505 57.7406 58.4401 56.7304 58.4401C54.4911 58.4316 53.0432 59.9553 53.0432 62.0515ZM67.0596 62.0515V58.5832H65.5443V59.4503C65.0392 58.802 64.3153 58.4401 63.3724 58.4401C61.4194 58.4401 59.9041 59.9553 59.9041 62.0515C59.9041 64.1476 61.4194 65.6629 63.3724 65.6629C64.3826 65.6629 65.1066 65.301 65.5443 64.6527V65.5198H67.0596V62.0515ZM61.4951 62.0515C61.4951 60.8224 62.2865 59.8122 63.5913 59.8122C64.8204 59.8122 65.6875 60.7551 65.6875 62.0515C65.6875 63.2806 64.8204 64.2908 63.5913 64.2908C62.2949 64.215 61.4951 63.2721 61.4951 62.0515ZM43.3622 58.4316C41.3418 58.4316 39.8938 59.8796 39.8938 62.0431C39.8938 64.215 41.3418 65.6545 43.4379 65.6545C44.4481 65.6545 45.4583 65.3683 46.2581 64.7117L45.5341 63.6257C44.9532 64.0635 44.2293 64.3497 43.5137 64.3497C42.5709 64.3497 41.6364 63.9119 41.4176 62.6913H46.5443C46.5443 62.4724 46.5443 62.3293 46.5443 62.1104C46.6116 59.8796 45.3068 58.4316 43.3622 58.4316ZM43.3622 59.7365C44.305 59.7365 44.9532 60.3173 45.0963 61.3949H41.4849C41.628 60.4604 42.2762 59.7365 43.3622 59.7365ZM81.0087 62.0515V55.8388H79.4934V59.4503C78.9883 58.802 78.2644 58.4401 77.3215 58.4401C75.3685 58.4401 73.8532 59.9553 73.8532 62.0515C73.8532 64.1476 75.3685 65.6629 77.3215 65.6629C78.3317 65.6629 79.0557 65.301 79.4934 64.6527V65.5198H81.0087V62.0515ZM75.4442 62.0515C75.4442 60.8224 76.2356 59.8122 77.5404 59.8122C78.7695 59.8122 79.6365 60.7551 79.6365 62.0515C79.6365 63.2806 78.7695 64.2908 77.5404 64.2908C76.2356 64.215 75.4442 63.2721 75.4442 62.0515ZM24.7157 62.0515V58.5832H23.2004V59.4503C22.6953 58.802 21.9713 58.4401 21.0285 58.4401C19.0754 58.4401 17.5601 59.9553 17.5601 62.0515C17.5601 64.1476 19.0754 65.6629 21.0285 65.6629C22.0387 65.6629 22.7626 65.301 23.2004 64.6527V65.5198H24.7157V62.0515ZM19.0839 62.0515C19.0839 60.8224 19.8752 59.8122 21.18 59.8122C22.4091 59.8122 23.2762 60.7551 23.2762 62.0515C23.2762 63.2806 22.4091 64.2908 21.18 64.2908C19.8752 64.215 19.0839 63.2721 19.0839 62.0515Z" fill="black"/>
<path d="M54.348 5.90161H31.585V46.7976H54.348V5.90161Z" fill="#FF5A00"/>
<path d="M33.1002 26.3496C33.1002 18.0407 37.0063 10.6663 43.0001 5.90158C38.5889 2.43325 33.0244 0.337097 26.9549 0.337097C12.5764 0.337097 0.942383 11.9712 0.942383 26.3496C0.942383 40.728 12.5764 52.3621 26.9549 52.3621C33.0244 52.3621 38.5889 50.2659 43.0001 46.7976C36.9979 42.1002 33.1002 34.6584 33.1002 26.3496Z" fill="#EB001B"/>
<path d="M85.0577 26.3496C85.0577 40.728 73.4237 52.3621 59.0452 52.3621C52.9757 52.3621 47.4112 50.2659 43 46.7976C49.0696 42.0244 52.8999 34.6584 52.8999 26.3496C52.8999 18.0407 48.9938 10.6663 43 5.90158C47.4028 2.43325 52.9672 0.337097 59.0368 0.337097C73.4237 0.337097 85.0577 12.0469 85.0577 26.3496Z" fill="#F79E1B"/>
</g>
<defs>
<clipPath id="clip0_1_288">
<rect width="84.1155" height="65.3259" fill="white" transform="translate(0.942383 0.337097)"/>
</clipPath>
</defs>
</svg>
