<svg width="110" height="36" viewBox="0 0 110 36" fill="none" xmlns="http://www.w3.org/2000/svg">
<g clip-path="url(#clip0_1_262)">
<path d="M47.6662 35.2874H38.755L44.3287 0.823669H53.2395L47.6662 35.2874Z" fill="#00579F"/>
<path d="M79.9702 1.66617C78.2125 0.968847 75.4247 0.198914 71.9775 0.198914C63.1774 0.198914 56.9804 4.89161 56.9424 11.6007C56.8693 16.5507 61.3792 19.3001 64.7523 20.9506C68.2 22.6371 69.3719 23.7379 69.3719 25.2412C69.3368 27.5501 66.586 28.6143 64.0204 28.6143C60.4626 28.6143 58.5563 28.0656 55.6593 26.7811L54.4859 26.2305L53.2389 33.9668C55.3289 34.919 59.1796 35.764 63.1774 35.801C72.5277 35.801 78.615 31.1809 78.6871 24.0313C78.7227 20.108 76.3413 17.1019 71.2071 14.6454C68.0903 13.0685 66.1816 12.0052 66.1816 10.3918C66.2181 8.92499 67.796 7.42264 71.3143 7.42264C74.2113 7.34906 76.3398 8.04541 77.9523 8.74225L78.7583 9.10821L79.9702 1.66617Z" fill="#00579F"/>
<path d="M91.814 23.0782C92.5479 21.0983 95.3718 13.4355 95.3718 13.4355C95.3348 13.5091 96.1042 11.419 96.5442 10.136L97.167 13.1056C97.167 13.1056 98.8545 21.3551 99.221 23.0782C97.8283 23.0782 93.5741 23.0782 91.814 23.0782ZM102.814 0.823669H95.921C93.7954 0.823669 92.1805 1.44644 91.2634 3.68314L78.0269 35.287H87.3772C87.3772 35.287 88.9165 31.0333 89.2474 30.1172C90.2732 30.1172 99.3691 30.1172 100.689 30.1172C100.945 31.3272 101.752 35.287 101.752 35.287H110.003L102.814 0.823669Z" fill="#00579F"/>
<path d="M31.312 0.823669L22.585 24.3247L21.6313 19.5584C20.0179 14.0587 14.9577 8.08346 9.31091 5.11239L17.3046 35.2509H26.728L40.7349 0.823669H31.312Z" fill="#00579F"/>
<path d="M14.4811 0.823669H0.143747L-0.00292969 1.52002C11.1811 4.37998 18.588 11.2738 21.6312 19.5598L18.5145 3.72066C18.0013 1.51953 16.4244 0.896277 14.4811 0.823669Z" fill="#FAA61A"/>
</g>
<defs>
<clipPath id="clip0_1_262">
<rect width="110.006" height="35.6021" fill="white" transform="translate(-0.00292969 0.198975)"/>
</clipPath>
</defs>
</svg>
